<svg xmlns="http://www.w3.org/2000/svg" width="50" height="50" viewBox="0 0 50 50">
  <defs>
    <style>
      .cls-1 {
        fill-rule: evenodd;
      }
    </style>
  </defs>
  <path id="user" class="cls-1" d="M41,41H9s0-8.031,6-8.031,7-1.3,7-1.721S22,30,22,30h6s0,0.915,0,1.248,0.938,1.721,6.969,1.721C41.093,32.969,41,41,41,41Zm-3-1.969H12s0-4,4-4c5.256,0,8-1.51,8-2.817V30h2v2.214c0,1.474,2.717,2.817,8,2.817C38,35.031,38,39.031,38,39.031ZM25,9c4.418,0,8,4.7,8,10.5S29.418,30,25,30s-8-4.7-8-10.5S20.582,9,25,9Zm-0.016,2.031c3.305,0,5.984,3.806,5.984,8.5s-2.679,8.5-5.984,8.5S19,24.226,19,19.531,21.679,11.031,24.984,11.031Z"/>
</svg>
