<svg xmlns="http://www.w3.org/2000/svg" width="50" height="50" viewBox="0 0 50 50">
  <defs>
    <style>
      .cls-1 {
        fill-rule: evenodd;
      }
    </style>
  </defs>
  <path id="list" class="cls-1" d="M13,21.008a4,4,0,1,1-4,4A4,4,0,0,1,13,21.008Zm0,1.613a2.389,2.389,0,1,1-2.388,2.389A2.388,2.388,0,0,1,13,22.621Zm8,1.442V26H41V24.062H21Zm0-12V14H41V12.062H21Zm-0.063,24V38H41V36.062H20.937ZM13,33.008a4,4,0,1,1-4,4A4,4,0,0,1,13,33.008Zm0,1.613a2.389,2.389,0,1,1-2.388,2.389A2.388,2.388,0,0,1,13,34.621ZM13,9.008a4,4,0,1,1-4,4A4,4,0,0,1,13,9.008Zm0,1.613a2.389,2.389,0,1,1-2.388,2.389A2.388,2.388,0,0,1,13,10.621Z"/>
</svg>
