<svg xmlns="http://www.w3.org/2000/svg" width="50" height="50" viewBox="0 0 50 50">
  <defs>
    <style>
      .cls-1 {
        fill-rule: evenodd;
      }
    </style>
  </defs>
  <path id="location_pin" data-name="location pin" class="cls-1" d="M25,41S13.031,34.031,13.031,22c0-4.969,1.841-13,11.969-13,10.1,0,11.969,7,11.969,13C36.969,34.094,25,41,25,41Zm0-23.969a3.984,3.984,0,1,1-4,3.985A3.992,3.992,0,0,1,25,17.031ZM25,19a2,2,0,1,1-2,2A2,2,0,0,1,25,19Zm0,19.758S14.708,32.7,14.708,22.235c0-4.321,1.583-11.305,10.292-11.305,8.683,0,10.292,6.087,10.292,11.305C35.291,32.752,25,38.758,25,38.758Z"/>
</svg>
